<svg width="20" height="21" viewBox="0 0 20 21" fill="none" xmlns="http://www.w3.org/2000/svg">
<path d="M10 0C15.5228 0 20 4.47715 20 10V13.7639C20 14.5215 19.572 15.214 18.8944 15.5528L16 17V18C16 19.5977 14.7511 20.9037 13.1763 20.9949L12.9499 21.0004C12.9718 20.8926 12.9868 20.7823 12.9943 20.67L13 20.5V20C13 18.9456 12.1841 18.0818 11.1493 18.0055L11 18H9C7.94564 18 7.08183 18.8159 7.00549 19.8507L7 20V20.5C7 20.6714 7.01725 20.8387 7.0501 21.0004L7 21C5.34315 21 4 19.6569 4 18V17L1.10557 15.5528C0.428 15.214 0 14.5215 0 13.7639V10C0 4.47715 4.47715 0 10 0ZM10 2C5.66509 2 2.13546 5.44784 2.00381 9.7508L2 10V13.7639L6 15.7639V17.355L6.07537 17.2711C6.76418 16.5335 7.72777 16.0584 8.7981 16.005L9 16L11.0735 16.0013L11.2964 16.0109C12.2947 16.0846 13.1868 16.5219 13.8452 17.1884L14 17.355V15.7639L18 13.7639V10C18 5.58172 14.4183 2 10 2ZM6 9C7.10457 9 8 9.8954 8 11C8 12.1046 7.10457 13 6 13C4.89543 13 4 12.1046 4 11C4 9.8954 4.89543 9 6 9ZM14 9C15.1046 9 16 9.8954 16 11C16 12.1046 15.1046 13 14 13C12.8954 13 12 12.1046 12 11C12 9.8954 12.8954 9 14 9Z" fill="#FF2D30"/>
</svg>
