<svg width="89" height="44" viewBox="0 0 89 44" fill="none" xmlns="http://www.w3.org/2000/svg">
<path d="M26.8398 33.4688V34.3945H22.9375V33.4688H26.8398ZM27.8125 33.4688V42H26.6816V33.4688H27.8125ZM22.5508 33.4688H23.6758L23.4824 37.6465C23.4551 38.248 23.4082 38.7852 23.3418 39.2578C23.2793 39.7266 23.1895 40.1348 23.0723 40.4824C22.9551 40.8262 22.8027 41.1113 22.6152 41.3379C22.4277 41.5605 22.1973 41.7266 21.9238 41.8359C21.6543 41.9453 21.3301 42 20.9512 42H20.6465V41.0801L20.8809 41.0625C21.0996 41.0469 21.2871 40.998 21.4434 40.916C21.6035 40.8301 21.7383 40.7012 21.8477 40.5293C21.9609 40.3574 22.0527 40.1348 22.123 39.8613C22.1934 39.5879 22.248 39.2539 22.2871 38.8594C22.3301 38.4609 22.3633 37.9961 22.3867 37.4648L22.5508 33.4688ZM30.8594 40.2832L33.7832 35.6602H34.873V42H33.7832V37.377L30.8594 42H29.7812V35.6602H30.8594V40.2832ZM37.791 35.6602V42H36.707V35.6602H37.791ZM41.9512 35.6602L38.9453 39.293H37.4277L37.2637 38.3438H38.5059L40.6328 35.6602H41.9512ZM40.7852 42L38.4531 39.1289L39.1504 38.3438L42.1621 42H40.7852ZM46.8438 40.916V37.6523C46.8438 37.4023 46.793 37.1855 46.6914 37.002C46.5938 36.8145 46.4453 36.6699 46.2461 36.5684C46.0469 36.4668 45.8008 36.416 45.5078 36.416C45.2344 36.416 44.9941 36.4629 44.7871 36.5566C44.584 36.6504 44.4238 36.7734 44.3066 36.9258C44.1934 37.0781 44.1367 37.2422 44.1367 37.418H43.0527C43.0527 37.1914 43.1113 36.9668 43.2285 36.7441C43.3457 36.5215 43.5137 36.3203 43.7324 36.1406C43.9551 35.957 44.2207 35.8125 44.5293 35.707C44.8418 35.5977 45.1895 35.543 45.5723 35.543C46.0332 35.543 46.4395 35.6211 46.791 35.7773C47.1465 35.9336 47.4238 36.1699 47.623 36.4863C47.8262 36.7988 47.9277 37.1914 47.9277 37.6641V40.6172C47.9277 40.8281 47.9453 41.0527 47.9805 41.291C48.0195 41.5293 48.0762 41.7344 48.1504 41.9062V42H47.0195C46.9648 41.875 46.9219 41.709 46.8906 41.502C46.8594 41.291 46.8438 41.0957 46.8438 40.916ZM47.0312 38.1562L47.043 38.918H45.9473C45.6387 38.918 45.3633 38.9434 45.1211 38.9941C44.8789 39.041 44.6758 39.1133 44.5117 39.2109C44.3477 39.3086 44.2227 39.4316 44.1367 39.5801C44.0508 39.7246 44.0078 39.8945 44.0078 40.0898C44.0078 40.2891 44.0527 40.4707 44.1426 40.6348C44.2324 40.7988 44.3672 40.9297 44.5469 41.0273C44.7305 41.1211 44.9551 41.168 45.2207 41.168C45.5527 41.168 45.8457 41.0977 46.0996 40.957C46.3535 40.8164 46.5547 40.6445 46.7031 40.4414C46.8555 40.2383 46.9375 40.041 46.9492 39.8496L47.4121 40.3711C47.3848 40.5352 47.3105 40.7168 47.1895 40.916C47.0684 41.1152 46.9062 41.3066 46.7031 41.4902C46.5039 41.6699 46.2656 41.8203 45.9883 41.9414C45.7148 42.0586 45.4062 42.1172 45.0625 42.1172C44.6328 42.1172 44.2559 42.0332 43.9316 41.8652C43.6113 41.6973 43.3613 41.4727 43.1816 41.1914C43.0059 40.9062 42.918 40.5879 42.918 40.2363C42.918 39.8965 42.9844 39.5977 43.1172 39.3398C43.25 39.0781 43.4414 38.8613 43.6914 38.6895C43.9414 38.5137 44.2422 38.3809 44.5938 38.291C44.9453 38.2012 45.3379 38.1562 45.7715 38.1562H47.0312ZM51.8535 36.4336C51.6152 36.4336 51.3867 36.4863 51.168 36.5918C50.9531 36.6973 50.7754 36.8438 50.6348 37.0312C50.498 37.2148 50.4297 37.4277 50.4297 37.6699H49.3926C49.3926 37.291 49.5098 36.9414 49.7441 36.6211C49.9785 36.2969 50.2832 36.0371 50.6582 35.8418C51.0332 35.6426 51.4316 35.543 51.8535 35.543C52.2988 35.543 52.6934 35.627 53.0371 35.7949C53.3809 35.9629 53.6699 36.1934 53.9043 36.4863C54.1426 36.7793 54.3223 37.1172 54.4434 37.5C54.5645 37.8789 54.625 38.2812 54.625 38.707V38.9531C54.625 39.3789 54.5625 39.7832 54.4375 40.166C54.3164 40.5449 54.1367 40.8828 53.8984 41.1797C53.6641 41.4727 53.375 41.7031 53.0312 41.8711C52.6914 42.0391 52.3008 42.123 51.8594 42.123C51.3867 42.123 50.9629 42.0215 50.5879 41.8184C50.2168 41.6152 49.9238 41.3418 49.709 40.998C49.498 40.6504 49.3926 40.2598 49.3926 39.8262H50.4297C50.4297 40.0879 50.4922 40.3262 50.6172 40.541C50.7461 40.752 50.918 40.9199 51.1328 41.0449C51.3477 41.1699 51.5898 41.2324 51.8594 41.2324C52.1523 41.2324 52.4043 41.166 52.6152 41.0332C52.8301 40.9004 53.0059 40.7246 53.1426 40.5059C53.2793 40.2871 53.3789 40.043 53.4414 39.7734C53.5078 39.5 53.541 39.2266 53.541 38.9531V38.707C53.541 38.4297 53.5078 38.1562 53.4414 37.8867C53.3789 37.6172 53.2793 37.373 53.1426 37.1543C53.0098 36.9355 52.8359 36.7617 52.6211 36.6328C52.4102 36.5 52.1543 36.4336 51.8535 36.4336ZM54.0684 38.3262V39.2109H51.1445V38.3262H54.0684ZM60.2441 35.6602V36.5566H57.1797V35.6602H60.2441ZM61.1992 35.6602V42H60.1152V35.6602H61.1992ZM56.916 35.6602H58.0059L57.8418 38.7188C57.8145 39.1914 57.7695 39.6094 57.707 39.9727C57.6484 40.332 57.5664 40.6406 57.4609 40.8984C57.3594 41.1562 57.2305 41.3672 57.0742 41.5312C56.9219 41.6914 56.7383 41.8105 56.5234 41.8887C56.3086 41.9629 56.0605 42 55.7793 42H55.4395V41.0449L55.6738 41.0273C55.8418 41.0156 55.9844 40.9766 56.1016 40.9102C56.2227 40.8438 56.3242 40.7461 56.4062 40.6172C56.4883 40.4844 56.5547 40.3145 56.6055 40.1074C56.6602 39.9004 56.7012 39.6543 56.7285 39.3691C56.7598 39.084 56.7832 38.752 56.7988 38.373L56.916 35.6602ZM63.8359 37.8398H65.7402C66.252 37.8398 66.6836 37.9297 67.0352 38.1094C67.3867 38.2852 67.6523 38.5293 67.832 38.8418C68.0156 39.1504 68.1074 39.502 68.1074 39.8965C68.1074 40.1895 68.0566 40.4648 67.9551 40.7227C67.8535 40.9766 67.7012 41.1992 67.498 41.3906C67.2988 41.582 67.0508 41.7324 66.7539 41.8418C66.4609 41.9473 66.123 42 65.7402 42H63.0449V35.6602H64.1289V41.1094H65.7402C66.0527 41.1094 66.3027 41.0527 66.4902 40.9395C66.6777 40.8262 66.8125 40.6797 66.8945 40.5C66.9766 40.3203 67.0176 40.1328 67.0176 39.9375C67.0176 39.7461 66.9766 39.5586 66.8945 39.375C66.8125 39.1914 66.6777 39.0391 66.4902 38.918C66.3027 38.793 66.0527 38.7305 65.7402 38.7305H63.8359V37.8398Z" fill="white"/>
<path d="M45 2C50.5228 2 55 6.47715 55 12V15.7639C55 16.5215 54.572 17.214 53.8944 17.5528L51 19V20C51 21.5977 49.7511 22.9037 48.1763 22.9949L47.9499 23.0004C47.9718 22.8926 47.9868 22.7823 47.9943 22.67L48 22.5V22C48 20.9456 47.1841 20.0818 46.1493 20.0055L46 20H44C42.9456 20 42.0818 20.8159 42.0055 21.8507L42 22V22.5C42 22.6714 42.0173 22.8387 42.0501 23.0004L42 23C40.3432 23 39 21.6569 39 20V19L36.1056 17.5528C35.428 17.214 35 16.5215 35 15.7639V12C35 6.47715 39.4771 2 45 2ZM45 4C40.6651 4 37.1355 7.44784 37.0038 11.7508L37 12V15.7639L41 17.7639V19.355L41.0754 19.2711C41.7642 18.5335 42.7278 18.0584 43.7981 18.005L44 18L46.0735 18.0013L46.2964 18.0109C47.2947 18.0846 48.1868 18.5219 48.8452 19.1884L49 19.355V17.7639L53 15.7639V12C53 7.58172 49.4183 4 45 4ZM41 11C42.1046 11 43 11.8954 43 13C43 14.1046 42.1046 15 41 15C39.8954 15 39 14.1046 39 13C39 11.8954 39.8954 11 41 11ZM49 11C50.1046 11 51 11.8954 51 13C51 14.1046 50.1046 15 49 15C47.8954 15 47 14.1046 47 13C47 11.8954 47.8954 11 49 11Z" fill="#FF2D30"/>
</svg>
