<svg width="120" height="120" viewBox="0 0 120 120" fill="none" xmlns="http://www.w3.org/2000/svg">
<path d="M96.272 10.3989C96.272 16.1417 91.6708 20.7977 85.9955 20.7977C80.3201 20.7977 75.7189 16.1417 75.7189 10.3989C75.7189 4.65601 80.3201 0 85.9955 0C91.6708 0 96.272 4.65601 96.272 10.3989Z" fill="#FF2D30"/>
<path opacity="0.9" d="M77.7179 4.24461C76.1627 3.86061 74.5974 3.53835 73.0286 3.28806C68.6171 2.58178 64.1649 2.41375 59.7907 2.74975C55.4165 3.08232 51.11 3.9292 46.9966 5.25606C42.8799 6.58292 38.9563 8.3932 35.3241 10.6149C39.2409 8.95892 43.317 7.78632 47.4371 7.11089C51.5572 6.43546 55.7146 6.26061 59.8076 6.56232C63.9006 6.86404 67.9191 7.63888 71.758 8.86288C73.1065 9.29145 74.428 9.77835 75.729 10.3166C75.746 8.04349 76.4846 5.94518 77.7213 4.24461H77.7179Z" fill="#FF2D30"/>
<path opacity="0.6" d="M25.139 109.601C25.139 103.858 29.7403 99.2024 35.4156 99.2024C41.0909 99.2024 45.6922 103.858 45.6922 109.601C45.6922 115.344 41.0909 120 35.4156 120C29.7403 120 25.139 115.344 25.139 109.601Z" fill="#FF2D30"/>
<path opacity="0.5" d="M73.9773 112.889C69.8572 113.565 65.6998 113.74 61.6068 113.438C57.5138 113.136 53.4953 112.365 49.6564 111.137C48.3079 110.709 46.9831 110.222 45.6854 109.684C45.6685 111.957 44.9298 114.055 43.6931 115.756C45.2483 116.14 46.8137 116.462 48.3825 116.712C52.794 117.418 57.2461 117.586 61.6204 117.25C65.9946 116.918 70.3011 116.071 74.4144 114.744C78.5278 113.417 82.4548 111.607 86.087 109.385C82.1701 111.041 78.0941 112.214 73.9739 112.889H73.9773Z" fill="#FF2D30"/>
<path opacity="0.4" d="M109.723 95.9899C104.048 95.9899 99.4469 91.3338 99.4469 85.591C99.4469 79.8481 104.048 75.1921 109.723 75.1921C115.399 75.1921 120 79.8481 120 85.591C120 91.3338 115.399 95.9899 109.723 95.9899Z" fill="#FF2D30"/>
<path opacity="0.3" d="M113.515 59.0847C113.217 63.2264 112.451 67.2926 111.241 71.1772C110.818 72.5418 110.337 73.879 109.805 75.1955C112.051 75.2127 114.125 75.9601 115.805 77.2115C116.185 75.6378 116.503 74.0538 116.751 72.4664C117.449 68.0024 117.615 63.4972 117.283 59.0675C116.954 54.6412 116.117 50.2835 114.806 46.1212C113.495 41.9589 111.706 37.9852 109.51 34.3098C111.147 38.2732 112.305 42.3978 112.973 46.567C113.64 50.7361 113.813 54.943 113.515 59.0847Z" fill="#FF2D30"/>
<path opacity="0.8" d="M21.851 35.9304C22.6932 30.2508 18.8258 24.9564 13.213 24.1049C7.6001 23.2534 2.36722 27.1673 1.52499 32.8469C0.682761 38.5264 4.55012 43.8209 10.163 44.6723C15.7759 45.5238 21.0088 41.6099 21.851 35.9304Z" fill="#FF2D30"/>
<path opacity="0.7" d="M7.89615 60.912C8.19432 56.7703 8.96007 52.704 10.1697 48.8194C10.5932 47.4549 11.0743 46.1177 11.6063 44.8012C9.35988 44.784 7.28627 44.0366 5.60569 42.7852C5.22621 44.3589 4.90771 45.9429 4.66037 47.5303C3.96239 51.9943 3.79636 56.4995 4.12841 60.9292C4.45707 65.3555 5.29397 69.7132 6.60523 73.8755C7.91648 78.0378 9.70548 82.0114 11.9011 85.6869C10.2645 81.7234 9.10576 77.5989 8.43827 73.4297C7.77079 69.2606 7.59799 65.0537 7.89615 60.912Z" fill="#FF2D30"/>
</svg>
